<svg width="120" height="120" viewBox="0 0 120 120" fill="none" xmlns="http://www.w3.org/2000/svg">
<path fill-rule="evenodd" clip-rule="evenodd" d="M94.5758 81.3719C96.1385 85.4414 97.6886 89.478 99.2488 93.5413C99.1246 93.5919 99.0265 93.6345 98.9265 93.672C95.852 94.829 92.6952 95.7045 89.4932 96.4232C86.5854 97.0758 83.6526 97.5896 80.7011 98C78.1756 98.3511 75.6422 98.6259 73.1014 98.8386C67.8359 99.2793 62.5613 99.4359 57.2792 99.3488C54.1097 99.2965 50.9441 99.1507 47.7831 98.9044C45.3706 98.7165 42.9637 98.4766 40.5648 98.1627C35.6833 97.5238 30.8513 96.6327 26.1096 95.2898C24.2816 94.7721 22.4757 94.1872 20.7051 93.4962C20.6141 93.4607 20.5248 93.421 20.4033 93.3701C22.0022 89.3202 23.5931 85.2908 25.192 81.241C25.4277 81.3295 25.631 81.4065 25.8347 81.4821C28.3502 82.4173 30.9321 83.1227 33.549 83.7058C36.4486 84.3518 39.3757 84.8373 42.3213 85.2193C45.138 85.5846 47.9642 85.8504 50.7983 86.0278C55.4217 86.3173 60.0488 86.387 64.6794 86.2417C67.0084 86.1687 69.3343 86.045 71.6565 85.8567C75.2848 85.5625 78.8965 85.1318 82.4837 84.504C85.2027 84.028 87.9017 83.4616 90.551 82.6834C91.7871 82.3202 93.0035 81.8903 94.2287 81.4903C94.3317 81.4568 94.4339 81.4205 94.5758 81.3719ZM81.6664 94.981C81.2833 92.3448 80.9076 89.7508 80.5182 87.1352C80.1534 87.1896 79.8319 87.2375 79.4804 87.2898C79.6221 88.4854 79.8325 89.6429 79.948 90.8146C79.8883 90.7615 79.8526 90.7039 79.8243 90.6428C79.4881 89.9174 79.1533 89.1914 78.8177 88.4657C78.6877 88.1845 78.5557 87.9043 78.4261 87.6229C78.3869 87.5376 78.346 87.4569 78.2319 87.4731C77.9292 87.516 77.6268 87.5607 77.2961 87.6087C77.4912 88.9446 77.6778 90.2383 77.8695 91.5312C78.062 92.8301 78.2357 94.1319 78.4504 95.4455C78.8232 95.3908 79.1578 95.3749 79.4894 95.2715C79.2498 93.6266 79.0149 92.0138 78.78 90.4012C78.8795 90.4713 78.928 90.5559 78.9704 90.6434C79.3755 91.4798 79.7725 92.3204 80.1878 93.1517C80.3334 93.4432 80.4222 93.7411 80.4603 94.0625C80.501 94.4072 80.5625 94.7495 80.6202 95.1279C80.9718 95.0784 81.2946 95.0332 81.6664 94.981ZM57.0479 88.8656C57.0222 91.512 56.9968 94.1255 56.9712 96.7653C57.3455 96.7841 57.6768 96.8 58.0282 96.7645C58.0397 95.9142 58.0527 95.0959 58.0614 94.2775C58.07 93.4675 58.0742 92.6574 58.0804 91.8474C58.1009 91.8455 58.1214 91.8435 58.1419 91.8416C58.1712 91.9236 58.2038 92.0046 58.2292 92.0879C58.4367 92.7662 58.6176 93.4539 58.856 94.1212C59.1196 94.8591 59.2313 95.6069 59.1694 96.385C59.1594 96.5105 59.168 96.6375 59.168 96.7834C59.5412 96.7944 59.8735 96.8231 60.2298 96.7747C60.2443 94.1344 60.3022 91.522 60.296 88.8889C59.9368 88.8889 59.6123 88.8889 59.2428 88.8889C59.2305 90.0762 59.2183 91.2552 59.2061 92.4341C59.1841 92.4373 59.1622 92.4407 59.1402 92.4439C58.7972 91.2525 58.4541 90.0611 58.11 88.8657C57.7495 88.8656 57.4229 88.8656 57.0479 88.8656ZM55.872 96.7078C55.8815 96.5963 55.8946 96.4887 55.8992 96.3806C55.9814 94.414 56.0632 92.4474 56.143 90.4806C56.1511 90.2811 56.1588 90.0802 56.1451 89.8815C56.1038 89.2835 55.7887 88.8864 55.2372 88.8161C54.7737 88.7571 54.3001 88.7404 53.833 88.7585C53.3704 88.7765 53.0478 89.0412 52.9156 89.4929C52.8573 89.6919 52.8304 89.9037 52.816 90.1115C52.7896 90.49 52.784 90.8701 52.7681 91.2495C52.6976 92.9366 52.6262 94.6237 52.5566 96.3108C52.5527 96.4057 52.5614 96.5012 52.5644 96.6032C52.7605 96.613 52.9197 96.6244 53.0792 96.6282C53.2454 96.6322 53.4117 96.6292 53.6061 96.6292C53.6275 96.1458 53.6484 95.6791 53.6689 95.2122C53.6897 94.7369 53.7099 94.2615 53.73 93.7955C54.1491 93.7955 54.5234 93.7955 54.9305 93.7955C54.9133 94.3057 54.8996 94.7817 54.8807 95.2574C54.8618 95.7318 54.8219 96.2058 54.8321 96.7079C55.1993 96.7078 55.5242 96.7078 55.872 96.7078ZM67.6709 96.5455C67.9301 96.5264 68.1565 96.5106 68.3827 96.4927C68.8907 96.4527 69.4004 96.4265 69.9062 96.3672C70.6069 96.2853 70.9323 95.8973 70.9104 95.1968C70.902 94.9274 70.8734 94.6586 70.8526 94.3896C70.7357 92.8753 70.6195 91.3608 70.4994 89.8467C70.4884 89.7082 70.4635 89.5686 70.4264 89.4347C70.2673 88.862 69.8721 88.5424 69.28 88.5061C69.1308 88.4969 68.9799 88.4994 68.8307 88.5096C68.4021 88.5388 67.9738 88.5744 67.5455 88.6085C67.3981 88.6202 67.251 88.6348 67.0673 88.6514C67.2688 91.2871 67.4687 93.9013 67.6709 96.5455ZM41.7079 88.8655C41.7295 88.0243 41.405 87.621 40.7142 87.4902C40.6357 87.4754 40.5568 87.4613 40.4775 87.4517C40.0812 87.4035 39.6856 87.3301 39.288 87.3167C38.8223 87.301 38.4841 87.538 38.314 87.9752C38.2387 88.1688 38.1886 88.3764 38.1579 88.5822C37.9367 90.0646 37.7226 91.548 37.5083 93.0314C37.4654 93.3279 37.4142 93.6249 37.397 93.9233C37.3598 94.568 37.6594 94.9927 38.2803 95.1279C38.7476 95.2296 39.2254 95.2983 39.7022 95.3362C40.2886 95.3826 40.678 95.0967 40.8518 94.5378C40.9079 94.3576 40.9399 94.1686 40.9676 93.9813C41.1429 92.7951 41.3145 91.6085 41.4863 90.4219C41.5678 89.8584 41.6469 89.2946 41.7079 88.8655ZM61.3981 96.7665C61.4913 96.778 61.5494 96.7927 61.6072 96.791C62.2859 96.7721 62.9648 96.7535 63.6433 96.7275C63.7613 96.723 63.8814 96.6951 63.9949 96.6598C64.3963 96.5351 64.6346 96.2639 64.6828 95.8429C64.7008 95.685 64.6998 95.524 64.6959 95.3647C64.6679 94.2167 64.6382 93.0688 64.6065 91.9209C64.5903 91.332 64.5806 90.7426 64.5471 90.1545C64.4986 89.3016 64.0176 88.8463 63.1637 88.8191C63.1039 88.8171 63.0439 88.8173 62.984 88.8191C62.465 88.8346 61.9459 88.8497 61.427 88.8681C61.3522 88.8707 61.278 88.89 61.1816 88.9052C61.2541 91.5391 61.3261 94.1501 61.3981 96.7665ZM47.041 88.252C46.8172 90.9001 46.5972 93.5035 46.3755 96.1277C46.487 96.1466 46.5727 96.1674 46.6594 96.175C47.1668 96.2195 47.6742 96.265 48.1823 96.3015C48.4009 96.3172 48.6223 96.3291 48.8402 96.3134C49.3428 96.277 49.644 96.0086 49.7579 95.516C49.7803 95.4193 49.79 95.3191 49.7986 95.2199C49.9126 93.9065 50.0262 92.5932 50.138 91.2796C50.1761 90.8318 50.218 90.384 50.2422 89.9353C50.2907 89.0375 49.8839 88.5387 48.9944 88.4186C48.5892 88.3638 48.179 88.3451 47.7709 88.3108C47.5436 88.2917 47.3162 88.2741 47.041 88.252ZM44.0442 95.8999C44.868 95.9273 45.268 95.6152 45.411 94.9388C45.4358 94.8217 45.4536 94.7027 45.4673 94.5838C45.6247 93.224 45.782 91.8644 45.936 90.5042C45.9844 90.0776 46.0498 89.6503 46.0595 89.2223C46.0745 88.5539 45.72 88.1426 45.0679 88.0408C44.6636 87.9776 44.2554 87.9307 43.8471 87.903C43.0871 87.8514 42.6636 88.1986 42.5363 88.9512C42.5296 88.9907 42.5256 89.0305 42.521 89.0702C42.3443 90.5986 42.1669 92.127 41.9917 93.6556C41.9575 93.9532 41.9146 94.2514 41.9064 94.5503C41.8879 95.2263 42.2183 95.6439 42.8684 95.7541C43.3013 95.8275 43.7405 95.8633 44.0442 95.8999ZM71.2355 88.3177C71.5174 90.9676 71.7938 93.5658 72.0734 96.1941C72.4408 96.1531 72.772 96.116 73.1267 96.0765C73.015 95.0023 72.9071 93.9651 72.7967 92.9037C73.0278 92.8795 73.2206 92.8594 73.4246 92.8381C73.7731 93.8849 74.1128 94.9055 74.4579 95.9423C74.7984 95.9024 75.1105 95.8659 75.4538 95.8256C75.0867 94.7372 74.7336 93.6901 74.38 92.6416C74.7916 92.3452 74.8931 91.9403 74.8718 91.4899C74.861 91.2608 74.8358 91.0321 74.8114 90.8036C74.7519 90.2474 74.7051 89.6893 74.6237 89.1363C74.5117 88.3744 74.0864 88.0442 73.3212 88.0882C73.2614 88.0916 73.2016 88.097 73.142 88.1033C72.7844 88.1409 72.4266 88.1777 72.0693 88.2175C71.8041 88.2472 71.5393 88.2811 71.2355 88.3177ZM35.2059 86.6051C34.7516 89.2257 34.3023 91.8069 33.8621 94.4149C34.2324 94.4766 34.5532 94.5715 34.9017 94.5672C35.1333 93.3893 35.2926 92.2263 35.5267 91.0623C35.9982 91.1386 36.4277 91.2083 36.8715 91.2802C36.9459 90.9501 37.0228 90.6575 37.0205 90.34C36.562 90.2562 36.1339 90.1779 35.6825 90.0954C35.8199 89.3003 35.9518 88.5367 36.0885 87.7453C36.6133 87.829 37.1103 87.9082 37.633 87.9916C37.6898 87.6644 37.7401 87.3746 37.796 87.0524C36.9288 86.9027 36.0959 86.7589 35.2059 86.6051ZM81.4276 86.9916C81.8771 89.6213 82.3178 92.1986 82.7633 94.8044C83.1276 94.7409 83.4567 94.6836 83.8109 94.6219C83.3603 92.0029 82.9298 89.4172 82.4708 86.8118C82.1092 86.8741 81.7882 86.9294 81.4276 86.9916ZM77.3699 95.5848C77.0384 92.9429 76.7128 90.3433 76.3716 87.7211C76.0054 87.7693 75.6831 87.8117 75.3222 87.8591C75.6551 90.4881 75.9843 93.0874 76.3176 95.7192C76.6747 95.6735 76.9978 95.6323 77.3699 95.5848ZM85.1698 94.3941C85.5253 94.3202 85.8604 94.307 86.1966 94.1933C86.1405 94.0883 86.1044 94.0178 86.0656 93.9488C85.4684 92.8855 84.8732 91.821 84.2705 90.7608C84.1819 90.605 84.1467 90.4552 84.1668 90.2773C84.2643 89.4133 84.3542 88.5483 84.4456 87.6835C84.4873 87.2893 84.5265 86.8948 84.5716 86.4526C84.2286 86.5115 83.931 86.5625 83.642 86.612C83.6217 86.6853 83.6054 86.7226 83.6014 86.7612C83.4699 88.0538 83.3371 89.3464 83.2139 90.64C83.2044 90.7395 83.2445 90.8556 83.2935 90.9469C83.7331 91.766 84.1797 92.5813 84.6247 93.3976C84.8012 93.7215 84.9788 94.0449 85.1698 94.3941ZM28.7571 94.0994C28.7461 93.9156 28.6644 93.7737 28.4996 93.6887C28.4292 93.6524 28.3515 93.6291 28.2754 93.6055C26.4825 93.0488 24.6894 92.4926 22.8962 91.937C22.82 91.9134 22.743 91.8877 22.6644 91.8778C22.4355 91.8492 22.225 91.9884 22.1543 92.2071C22.088 92.4122 22.1707 92.6385 22.3624 92.751C22.4302 92.7909 22.5085 92.815 22.5844 92.8385C24.3964 93.4011 26.2086 93.963 28.0214 94.5225C28.1154 94.5515 28.2169 94.5733 28.3142 94.5712C28.5694 94.5657 28.761 94.354 28.7571 94.0994ZM91.5539 94.8134C91.6034 94.8005 91.7007 94.7795 91.7955 94.7502C93.57 94.2014 95.3442 93.6519 97.1183 93.1017C97.204 93.0752 97.2914 93.0493 97.371 93.0091C97.5941 92.8966 97.6903 92.6547 97.6098 92.4278C97.5348 92.2161 97.3152 92.0833 97.0863 92.1199C96.9982 92.1339 96.9124 92.1645 96.8266 92.1912C95.0621 92.7384 93.2977 93.2861 91.5334 93.8343C91.4478 93.8608 91.3594 93.8843 91.2799 93.9241C91.0672 94.031 90.9675 94.2598 91.0303 94.4767C91.0912 94.6873 91.2755 94.8184 91.5539 94.8134ZM24.5609 87.3118C24.304 87.3175 24.1168 87.468 24.065 87.6797C24.0166 87.8772 24.1029 88.0922 24.2861 88.1925C24.3723 88.2397 24.4713 88.2664 24.5669 88.2931C26.2789 88.7724 27.9912 89.2505 29.704 89.7274C29.7897 89.7512 29.8795 89.7724 29.9677 89.7737C30.183 89.7767 30.3583 89.6417 30.4156 89.444C30.477 89.2322 30.3936 89.0115 30.2018 88.9017C30.1334 88.8624 30.0557 88.8363 29.9793 88.815C28.2382 88.3284 26.4968 87.8431 24.7552 87.3581C24.6788 87.3369 24.6008 87.3212 24.5609 87.3118ZM31.5568 85.4519C31.8445 85.4679 32.0392 85.3344 32.0981 85.1125C32.1607 84.8764 32.0514 84.6511 31.8187 84.5496C31.7459 84.5178 31.6671 84.4994 31.5902 84.4779C29.8878 84.0012 28.1853 83.5249 26.4828 83.0486C26.4251 83.0325 26.3679 83.0125 26.3091 83.0025C26.0516 82.9589 25.8181 83.1015 25.7494 83.3415C25.6845 83.5682 25.7985 83.8017 26.0301 83.9041C26.1027 83.9362 26.1809 83.9563 26.2578 83.9778C27.9605 84.4534 29.6633 84.9285 31.3661 85.4032C31.4428 85.4246 31.5203 85.4427 31.5568 85.4519ZM94.0357 83.7288C94.0383 83.4379 93.8083 83.216 93.5323 83.2357C93.4438 83.2419 93.3561 83.2693 93.2698 83.2934C91.567 83.769 89.8645 84.2452 88.1621 84.7223C88.0757 84.7465 87.9866 84.7688 87.9077 84.8093C87.7114 84.91 87.614 85.1346 87.6661 85.3405C87.7201 85.5545 87.8995 85.698 88.1276 85.6926C88.2256 85.6903 88.3248 85.6646 88.4203 85.638C90.1139 85.167 91.8071 84.6943 93.5002 84.2212C93.5867 84.1971 93.6741 84.1729 93.7559 84.1369C93.9384 84.0566 94.0259 83.9085 94.0357 83.7288ZM89.8554 90.0157C89.8965 90.0064 89.9847 89.9905 90.0707 89.9666C91.7832 89.4891 93.4956 89.011 95.2076 88.5319C95.2939 88.5078 95.3826 88.4844 95.4616 88.444C95.6709 88.3368 95.7626 88.1067 95.6943 87.8851C95.6313 87.6807 95.4317 87.539 95.2133 87.5557C95.1248 87.5624 95.0372 87.5894 94.951 87.6134C93.2482 88.0891 91.5458 88.5654 89.8435 89.0426C89.7572 89.0668 89.668 89.0889 89.589 89.1293C89.3908 89.231 89.294 89.4521 89.3457 89.6596C89.3987 89.8725 89.5797 90.0119 89.8554 90.0157ZM27.3209 91.0776C27.3252 90.8262 27.1808 90.662 26.8566 90.5745C25.8248 90.2958 24.7918 90.0216 23.7592 89.7461C23.7111 89.7332 23.6625 89.7182 23.6133 89.7143C23.3833 89.6959 23.1742 89.8402 23.1103 90.0578C23.0465 90.2749 23.1469 90.504 23.3602 90.6092C23.4309 90.644 23.51 90.6636 23.5868 90.6844C24.5897 90.9548 25.5927 91.2248 26.5961 91.4935C26.6731 91.5141 26.7523 91.535 26.8311 91.5381C27.0982 91.5488 27.3164 91.3399 27.3209 91.0776ZM92.9489 91.7798C93.0104 91.7671 93.0995 91.7533 93.186 91.7302C94.189 91.462 95.192 91.1929 96.1944 90.9222C96.2805 90.8989 96.3693 90.8736 96.4458 90.8298C96.6392 90.7191 96.7188 90.4988 96.6546 90.2867C96.5931 90.0834 96.3923 89.9414 96.175 89.9552C96.1062 89.9596 96.0379 89.9801 95.9706 89.9979C94.9575 90.2672 93.9444 90.5368 92.9319 90.8084C92.8458 90.8315 92.7575 90.859 92.6811 90.9033C92.4879 91.0153 92.4046 91.2409 92.4686 91.4461C92.5284 91.6379 92.7158 91.7758 92.9489 91.7798ZM25.5381 85.1542C25.2887 85.147 25.0947 85.2862 25.0313 85.4946C24.9691 85.6992 25.0565 85.9293 25.2501 86.0344C25.3366 86.0813 25.4354 86.1081 25.5312 86.135C26.4644 86.3972 27.3981 86.6578 28.3318 86.9179C28.4184 86.942 28.5057 86.9696 28.5943 86.9791C28.8281 87.004 29.0361 86.8618 29.1 86.6434C29.1647 86.4217 29.0689 86.1994 28.8539 86.0899C28.7834 86.054 28.7052 86.0312 28.6285 86.0097C27.6662 85.7402 26.7035 85.4721 25.7407 85.2042C25.6641 85.1827 25.5861 85.1659 25.5381 85.1542ZM94.7559 85.8687C94.7577 85.5955 94.5261 85.3762 94.2486 85.3959C94.1699 85.4016 94.0919 85.426 94.0152 85.4473C93.0621 85.7125 92.1091 85.9783 91.1565 86.2455C91.0702 86.2696 90.9821 86.2949 90.9033 86.336C90.7051 86.4391 90.611 86.6584 90.6645 86.868C90.7204 87.087 90.9284 87.2414 91.1589 87.2214C91.2574 87.2128 91.3544 87.1812 91.4506 87.1545C92.2883 86.922 93.1258 86.6884 93.9631 86.4544C94.1171 86.4114 94.2731 86.3732 94.4231 86.319C94.6404 86.2404 94.7545 86.0771 94.7559 85.8687ZM29.7165 91.6944C29.7108 91.5104 29.6137 91.3508 29.4285 91.2757C29.1704 91.1709 28.9089 91.0714 28.6419 90.9928C28.3681 90.9123 28.1248 91.045 28.0403 91.2922C27.9571 91.5355 28.0786 91.7836 28.3447 91.891C28.5569 91.9765 28.7726 92.0545 28.9902 92.1253C29.0831 92.1556 29.1853 92.1753 29.2822 92.1716C29.5366 92.1619 29.7243 91.948 29.7165 91.6944ZM91.7517 91.6909C91.7476 91.3655 91.4676 91.1407 91.1529 91.2268C90.866 91.3051 90.582 91.4073 90.3121 91.5322C90.012 91.6711 89.9639 92.0604 90.1969 92.2864C90.3224 92.4081 90.4801 92.4508 90.6391 92.402C90.9334 92.3114 91.2252 92.2087 91.5088 92.089C91.6775 92.0178 91.7496 91.8592 91.7517 91.6909ZM30.4325 86.4584C30.1907 86.4636 30.0479 86.5594 29.9616 86.734C29.8777 86.9036 29.9031 87.1478 30.0558 87.2549C30.3236 87.4425 30.6157 87.6019 30.955 87.611C31.1539 87.6163 31.2931 87.4992 31.3631 87.3159C31.4329 87.133 31.4121 86.9433 31.2581 86.8231C31.0056 86.6259 30.7054 86.5182 30.4325 86.4584ZM89.857 87.1794C89.8492 86.8552 89.5628 86.6366 89.2482 86.7188C89.0669 86.7664 88.8956 86.8539 88.7222 86.9291C88.4325 87.0548 88.3097 87.2925 88.3995 87.5434C88.4909 87.799 88.7431 87.9189 89.0363 87.8233C89.2342 87.7587 89.4268 87.6726 89.6133 87.5791C89.7784 87.4965 89.846 87.3413 89.857 87.1794Z" fill="#B19472"/>
<path fill-rule="evenodd" clip-rule="evenodd" d="M93.9699 57.7277C93.9381 63.503 92.6189 68.9561 89.8766 74.0522C89.6587 74.457 89.4236 74.8527 89.1945 75.2514C89.0578 75.4895 88.8593 75.6442 88.5835 75.6917C87.9808 75.7952 87.4688 75.2366 87.6394 74.6491C87.6831 74.4984 87.7672 74.3568 87.8477 74.2199C89.7095 71.0515 90.9716 67.6584 91.6755 64.0537C92.1781 61.4799 92.3759 58.8822 92.2548 56.2648C91.9462 49.5939 89.7648 43.5881 85.7136 38.2879C81.4395 32.6959 75.9095 28.8838 69.1588 26.8672C66.032 25.9333 62.8315 25.5109 59.5684 25.5604C48.6385 25.7262 38.6292 31.3327 32.7623 40.5867C30.436 44.256 28.9082 48.2349 28.2089 52.5252C27.8002 55.0323 27.6924 57.5542 27.8794 60.0893C28.2295 64.8356 29.526 69.3022 31.8181 73.4761C32.0347 73.8704 32.2742 74.2519 32.4935 74.6447C32.7101 75.0326 32.6331 75.4634 32.3133 75.729C31.9496 76.0309 31.4048 75.9729 31.1127 75.5921C31.0098 75.4578 30.927 75.3077 30.8406 75.1614C28.5957 71.3616 27.1657 67.2735 26.502 62.9133C26.1364 60.5123 26.0207 58.0992 26.1682 55.6757C26.5116 50.0353 28.1691 44.8063 31.1418 40.0028C34.141 35.1561 38.1086 31.2921 43.0388 28.4286C46.5497 26.3895 50.3151 25.0444 54.3168 24.3561C56.6914 23.9476 59.0831 23.7874 61.4874 23.8998C68.1181 24.2095 74.1791 26.2346 79.6007 30.0739C85.2657 34.0855 89.3327 39.3595 91.8244 45.8402C92.7323 48.2014 93.3323 50.643 93.6653 53.1512C93.867 54.67 93.971 56.1946 93.9699 57.7277Z" fill="#B19472"/>
<path fill-rule="evenodd" clip-rule="evenodd" d="M38.6772 41.4634C38.6663 41.1314 38.7414 40.7982 38.9803 40.5134C39.091 40.3814 39.2209 40.3182 39.3974 40.3252C39.7463 40.3391 40.0628 40.4513 40.3658 40.6126C40.7943 40.8409 41.1518 41.1594 41.4924 41.5001C44.0299 44.0383 46.5675 46.5766 49.1063 49.1137C52.43 52.4352 55.7456 55.7649 59.0826 59.0729C61.2342 61.2058 63.4335 63.2905 65.7666 65.226C67.7516 66.8726 69.7641 68.4862 71.7633 70.1158C72.7321 70.9053 73.7051 71.6896 74.6634 72.4915C75.2757 73.004 75.7589 73.6284 76.1054 74.3497C76.2084 74.5641 76.29 74.795 76.3405 75.0272C76.4822 75.6781 76.3377 76.2566 75.8488 76.7306C75.813 76.7653 75.7774 76.8005 75.7406 76.8343C74.9119 77.5936 74.0638 77.6737 73.1169 77.0706C72.5303 76.6969 72.0368 76.2136 71.5783 75.6963C69.5752 73.4365 67.6812 71.0846 65.7418 68.771C63.712 66.3497 61.6542 63.9528 59.4785 61.6602C58.7213 60.8624 57.9508 60.0773 57.0984 59.3785C56.5437 58.9238 55.9217 58.585 55.2481 58.3463C54.7815 58.1809 54.3082 58.072 53.8205 58.3085C53.7269 58.3539 53.5837 58.3218 53.4697 58.2966C52.4405 58.0696 51.5872 57.5386 50.8719 56.7746C49.8195 55.6508 48.7685 54.5258 47.7163 53.402C45.571 51.1104 43.4283 48.8162 41.2773 46.5299C40.7385 45.9572 40.3125 45.3066 39.8993 44.6456C39.5012 44.0088 39.1496 43.347 38.9038 42.6341C38.7764 42.2641 38.6788 41.8876 38.6772 41.4634Z" fill="#B19472"/>
<path fill-rule="evenodd" clip-rule="evenodd" d="M100.12 82.8557C102.98 84.0004 105.836 85.1433 108.692 86.2862C108.694 86.308 108.696 86.3297 108.698 86.3515C105.568 87.6559 102.437 88.9603 99.2798 90.2761C99.2162 90.1165 99.1641 89.9891 99.1148 89.8608C97.9933 86.9398 96.8702 84.0194 95.7532 81.0967C95.6071 80.7144 95.3932 80.408 95.0017 80.2515C94.6644 80.1165 94.342 80.1796 94.0091 80.2922C92.7691 80.7117 91.5247 81.1177 90.2812 81.5267C90.1607 81.5664 90.0354 81.5918 89.877 81.633C89.7189 81.0841 89.5683 80.5615 89.409 80.0087C94.5442 78.2005 99.6499 76.4027 104.741 74.6099C104.771 74.6332 104.782 74.6377 104.786 74.6455C104.79 74.6537 104.79 74.6653 104.789 74.6749C104.788 74.6843 104.784 74.6936 104.779 74.7024C104.771 74.7203 104.762 74.7382 104.752 74.7557C104.737 74.7818 104.722 74.8075 104.707 74.8335C103.194 77.4469 101.682 80.0603 100.169 82.6737C100.159 82.691 100.15 82.7086 100.141 82.7264C100.136 82.7353 100.133 82.7446 100.129 82.754C100.126 82.7634 100.122 82.7729 100.121 82.7826C100.119 82.7924 100.12 82.8026 100.12 82.8557Z" fill="#B19472"/>
<path fill-rule="evenodd" clip-rule="evenodd" d="M20.0161 82.8369C18.4213 80.0816 16.8552 77.3761 15.2947 74.6803C15.3144 74.6516 15.3183 74.6426 15.325 74.637C15.3322 74.6311 15.344 74.6228 15.3505 74.6251C20.3956 76.3955 25.4405 78.1669 30.485 79.939C30.5402 79.9583 30.5912 79.9892 30.6758 80.0299C30.5231 80.5595 30.3724 81.082 30.2149 81.6284C30.0807 81.5963 29.9752 81.5755 29.8722 81.5459C28.498 81.1508 27.1389 80.7103 25.805 80.1932C25.6478 80.1322 25.4834 80.0725 25.3176 80.0538C24.7653 79.9916 24.2904 80.2899 24.0683 80.8359C23.7973 81.5026 23.5387 82.1743 23.2744 82.8437C22.3642 85.1495 21.454 87.4552 20.5434 89.7609C20.5036 89.8617 20.4604 89.9612 20.4209 90.0561C20.1855 90.0286 11.7059 86.5116 11.3752 86.3001C12.8295 85.7043 14.2643 85.1411 15.6943 84.5663C17.1211 83.9928 18.5496 83.4236 20.0161 82.8369Z" fill="#B19472"/>
<path fill-rule="evenodd" clip-rule="evenodd" d="M63.4078 41.1319C63.4078 42.7704 63.4078 44.4143 63.4078 46.075C61.1579 46.075 58.9444 46.075 56.6938 46.075C56.6938 44.419 56.6938 42.7757 56.6938 41.1269C56.4987 41.0721 56.3349 41.0309 56.1741 40.9804C54.3953 40.421 53.7506 38.0426 55.1695 36.6382C55.6325 36.1799 56.2204 35.9956 56.8558 35.9569C57.0938 35.9424 57.3371 35.9502 57.5727 35.9845C57.7521 36.0105 57.8451 35.9558 57.9356 35.8086C58.3138 35.1933 58.8492 34.7752 59.5601 34.6228C60.5998 34.4 61.4733 34.7016 62.168 35.5098C62.2135 35.5627 62.2582 35.6179 62.2934 35.6778C62.4206 35.8942 62.5995 35.9726 62.8495 35.9263C63.159 35.869 63.4673 35.9061 63.7694 35.9879C64.839 36.2775 65.639 37.2494 65.7006 38.3315C65.7654 39.471 65.1008 40.5128 64.0382 40.9269C63.8438 41.0028 63.641 41.0568 63.4078 41.1319Z" fill="#B19472"/>
<path fill-rule="evenodd" clip-rule="evenodd" d="M79.7193 42.5204C79.943 42.7357 80.1415 42.9267 80.3574 43.1345C80.2537 43.242 80.1664 43.3355 80.076 43.4259C77.9196 45.5827 75.7637 47.7399 73.6048 49.8942C73.4526 50.0461 73.3243 50.2066 73.2702 50.4165C73.2123 50.6415 73.296 50.7372 73.5318 50.7177C73.7301 50.7013 73.8839 50.607 74.0266 50.4671C75.2766 49.2425 76.5316 48.023 77.7848 46.8017C78.7802 45.8317 79.7752 44.8613 80.7708 43.8914C80.8203 43.8433 80.8739 43.7993 80.9514 43.7303C81.1024 43.876 81.2491 44.0175 81.4058 44.1687C81.3623 44.2316 81.3343 44.2826 81.2966 44.325C79.2756 46.5962 77.2308 48.8452 75.0543 50.9701C74.6253 51.3889 74.1748 51.7859 73.7316 52.1901C73.2105 52.6655 72.6265 53.0472 71.9877 53.3452C71.3535 53.641 70.7257 53.952 70.0816 54.2247C68.9717 54.6946 68.0064 55.376 67.1035 56.1625C65.5562 57.5105 64.1111 58.9639 62.6749 60.4268C62.5507 60.5533 62.426 60.6795 62.28 60.8277C61.8252 60.3953 61.3932 59.9843 60.9358 59.5493C61.0257 59.4603 61.0985 59.3839 61.1757 59.3123C62.5179 58.0671 63.8285 56.7904 65.018 55.3959C65.7459 54.5426 66.4519 53.6684 66.9197 52.6392C67.2917 51.8207 67.6179 50.9813 67.9647 50.1513C68.0264 50.0037 68.0912 49.8575 68.1517 49.7094C68.4701 48.9294 68.929 48.2489 69.554 47.6783C71.2597 46.1212 72.9549 44.5525 74.6655 43.0008C75.5615 42.188 76.481 41.401 77.3904 40.6031C77.4637 40.5389 77.5424 40.4807 77.6251 40.4146C77.7996 40.589 77.9586 40.7479 78.1325 40.9218C78.0495 41.0099 77.9775 41.0905 77.9013 41.1667C75.7523 43.3166 73.6024 45.4658 71.4542 47.6166C71.3202 47.7507 71.1926 47.8922 71.0727 48.0389C71.0105 48.115 70.9567 48.205 70.9253 48.2976C70.8582 48.4953 71.0075 48.6571 71.1999 48.5773C71.3606 48.5106 71.5122 48.3982 71.6383 48.2757C72.083 47.844 72.5117 47.396 72.9521 46.96C74.7573 45.1734 76.5646 43.3888 78.3716 41.604C78.4415 41.5349 78.5162 41.4707 78.6021 41.3919C78.7471 41.5416 78.8819 41.6806 79.0317 41.8353C78.9645 41.9095 78.9012 41.9839 78.8331 42.0536C76.696 44.2434 74.5571 46.4314 72.4235 48.6246C72.2793 48.7727 72.1516 48.9466 72.0548 49.1289C71.892 49.4355 71.9949 49.5894 72.334 49.5796C72.6333 49.5709 72.8796 49.4715 73.1018 49.244C75.2325 47.0619 77.3735 44.8901 79.5121 42.7157C79.5747 42.6521 79.6419 42.5932 79.7193 42.5204Z" fill="#B19472"/>
<path fill-rule="evenodd" clip-rule="evenodd" d="M58.3325 61.834C58.8381 62.3713 59.3157 62.8787 59.8014 63.3948C59.7401 63.4702 59.7007 63.5263 59.6537 63.5753C57.4167 65.9063 55.3222 68.3664 53.1498 70.7558C51.529 72.5386 49.8936 74.3084 48.2576 76.0772C47.9731 76.3848 47.6634 76.6715 47.3468 76.9466C46.9642 77.2793 46.5181 77.5032 46.0206 77.6144C45.0057 77.8412 44.1437 77.2652 43.9753 76.2385C43.8541 75.5 44.0082 74.8068 44.4886 74.2382C44.997 73.6362 45.5477 73.066 46.1152 72.5184C48.3251 70.3862 50.6431 68.3731 52.9716 66.3727C54.6553 64.9265 56.3567 63.5008 58.0505 62.0661C58.1332 61.9962 58.2177 61.9284 58.3325 61.834Z" fill="#B19472"/>
<path fill-rule="evenodd" clip-rule="evenodd" d="M84.6166 59.5636C84.5238 59.6658 84.463 59.7396 84.3952 59.8063C83.9253 60.2691 83.4573 60.7338 82.981 61.1899C82.8459 61.3193 82.7932 61.4432 82.8304 61.6374C82.9596 62.3142 83.068 62.995 83.183 63.6745C83.1944 63.7412 83.1966 63.8094 83.2064 63.9125C83.1087 63.8738 83.036 63.8519 82.9698 63.8174C82.3674 63.5035 81.7617 63.1953 81.1671 62.8669C80.9847 62.7661 80.8449 62.7757 80.6693 62.8716C80.0995 63.1827 79.5217 63.4794 78.9465 63.7809C78.8613 63.8256 78.7733 63.8653 78.6399 63.93C78.657 63.779 78.6635 63.6817 78.6795 63.5861C78.7851 62.9556 78.8858 62.3241 79.0036 61.6958C79.0448 61.4762 78.9991 61.3227 78.8313 61.1665C78.3557 60.7244 77.8977 60.2634 77.4338 59.8089C77.3661 59.7427 77.3038 59.671 77.2002 59.5603C77.5391 59.5067 77.8211 59.4594 78.1039 59.418C78.5684 59.3502 79.0327 59.2797 79.4987 59.2238C79.6885 59.201 79.7989 59.1176 79.8814 58.9435C80.1636 58.3477 80.4611 57.7591 80.754 57.1684C80.7971 57.0813 80.8469 56.9975 80.913 56.877C80.9753 56.9868 81.0219 57.0605 81.0606 57.1383C81.3549 57.7283 81.6578 58.3144 81.9355 58.9122C82.0336 59.1234 82.1706 59.2014 82.3895 59.2294C83.0632 59.3155 83.7345 59.4195 84.4067 59.5175C84.4621 59.5256 84.5164 59.5413 84.6166 59.5636Z" fill="#B19472"/>
<path fill-rule="evenodd" clip-rule="evenodd" d="M42.894 59.5606C42.7744 59.6851 42.7014 59.7648 42.6245 59.8407C42.1834 60.2754 41.7486 60.717 41.2963 61.1397C41.1154 61.3087 41.0581 61.4756 41.1067 61.7196C41.2294 62.3365 41.328 62.9581 41.4343 63.5781C41.4508 63.6744 41.4565 63.7727 41.4725 63.9177C41.3599 63.8694 41.2806 63.8415 41.2068 63.803C40.6136 63.4934 40.0173 63.1891 39.4314 62.8662C39.2501 62.7662 39.1096 62.7751 38.9337 62.8716C38.3732 63.1788 37.8044 63.4707 37.2383 63.7676C37.1429 63.8177 37.045 63.863 36.9151 63.9268C36.9213 63.8208 36.9194 63.755 36.9298 63.6911C37.0398 63.0211 37.1398 62.3491 37.2697 61.6828C37.3145 61.4533 37.2524 61.3124 37.0907 61.1611C36.6242 60.7242 36.1715 60.2725 35.7143 59.8256C35.6444 59.7573 35.5794 59.6838 35.4864 59.5856C35.5807 59.5571 35.6404 59.5306 35.7027 59.5213C36.3742 59.4213 37.0451 59.3149 37.7188 59.2309C37.9444 59.2028 38.0717 59.1092 38.1673 58.9045C38.4377 58.3255 38.7281 57.7559 39.0116 57.1831C39.0553 57.0948 39.1043 57.0091 39.1672 56.8915C39.2202 56.9657 39.2648 57.0135 39.2928 57.0696C39.6003 57.6862 39.9121 58.301 40.2069 58.9237C40.2995 59.1193 40.4268 59.2008 40.6379 59.2275C41.3114 59.3127 41.9825 59.4174 42.6543 59.5152C42.7112 59.5236 42.7675 59.5365 42.894 59.5606Z" fill="#B19472"/>
<path fill-rule="evenodd" clip-rule="evenodd" d="M35.207 80.6002C34.9618 80.5936 34.756 80.496 34.6029 80.3115C34.0552 79.6511 33.5041 78.9932 32.9738 78.319C32.6748 77.9388 32.7506 77.4278 33.1092 77.141C33.4746 76.8489 33.987 76.913 34.3067 77.2993C34.8284 77.9295 35.3452 78.5637 35.8637 79.1964C36.1018 79.4869 36.1554 79.8089 35.987 80.1453C35.8297 80.4596 35.5571 80.6038 35.207 80.6002Z" fill="#B19472"/>
<path fill-rule="evenodd" clip-rule="evenodd" d="M87.3219 77.8516C87.245 78.021 87.1982 78.2141 87.0863 78.3557C86.5728 79.0057 86.0502 79.649 85.5127 80.2793C85.1926 80.6544 84.6881 80.6864 84.333 80.3906C83.9697 80.0879 83.924 79.5749 84.239 79.185C84.7471 78.556 85.2609 77.9318 85.7768 77.3092C86.0311 77.0023 86.4018 76.9055 86.7459 77.0419C87.0712 77.1709 87.2897 77.4927 87.3219 77.8516Z" fill="#B19472"/>
<path fill-rule="evenodd" clip-rule="evenodd" d="M23.9829 48.117C24.0512 47.8392 24.1223 47.4864 24.2255 47.1432C24.5241 46.1503 24.835 45.1611 25.1435 44.1711C25.17 44.0861 25.2049 44.0009 25.2517 43.9256C25.3771 43.7239 25.6106 43.6505 25.8252 43.7359C26.0403 43.8215 26.1633 44.0341 26.1217 44.2644C26.1058 44.3519 26.0723 44.4368 26.042 44.5211C25.6093 45.7236 25.247 46.9469 24.9569 48.1916C24.9411 48.2595 24.9268 48.3286 24.9022 48.3935C24.8119 48.6311 24.5913 48.7617 24.3615 48.7183C24.1149 48.6717 23.9621 48.4613 23.9829 48.117Z" fill="#B19472"/>
<path fill-rule="evenodd" clip-rule="evenodd" d="M73.049 22.6248C73.0999 22.6397 73.1972 22.6615 73.2896 22.6964C74.4851 23.1488 75.6556 23.6586 76.7982 24.232C76.8249 24.2455 76.8523 24.2578 76.8782 24.2728C77.1438 24.4261 77.2398 24.6844 77.1225 24.9284C77.0065 25.1694 76.7354 25.2582 76.4586 25.1376C76.2941 25.0659 76.1378 24.9752 75.9733 24.9037C74.9944 24.4785 74.0141 24.0564 73.0345 23.633C72.9339 23.5896 72.8274 23.5552 72.7351 23.498C72.5493 23.3829 72.4765 23.1549 72.5445 22.9464C72.6079 22.7517 72.7911 22.6225 73.049 22.6248Z" fill="#B19472"/>
<path fill-rule="evenodd" clip-rule="evenodd" d="M91.4541 37.3791C91.4457 37.6398 91.3608 37.7879 91.1823 37.8753C91.0028 37.9632 90.8292 37.9414 90.6791 37.8157C90.6043 37.7532 90.5451 37.6685 90.4903 37.5862C89.8204 36.5812 89.1054 35.6096 88.3397 34.6755C88.2892 34.614 88.2374 34.5514 88.1998 34.482C88.0813 34.2634 88.1378 34.0101 88.3305 33.8666C88.5079 33.7344 88.7623 33.7465 88.9376 33.899C88.9823 33.938 89.0207 33.985 89.0586 34.0311C89.8643 35.0101 90.6174 36.028 91.3135 37.0876C91.3825 37.1926 91.4241 37.3156 91.4541 37.3791Z" fill="#B19472"/>
<path fill-rule="evenodd" clip-rule="evenodd" d="M79.0516 25.5081C79.1041 25.5291 79.2151 25.5534 79.3033 25.612C80.319 26.286 81.3325 26.9636 82.3424 27.6463C82.429 27.7049 82.5043 27.7977 82.5532 27.8912C82.6465 28.0697 82.6024 28.2454 82.4727 28.3909C82.343 28.5366 82.1755 28.5934 81.9846 28.5312C81.91 28.5069 81.8394 28.4646 81.7736 28.4207C80.7762 27.7552 79.7796 27.0883 78.7838 26.4204C78.7263 26.3819 78.6668 26.3399 78.6242 26.2868C78.5003 26.1324 78.4867 25.9576 78.5643 25.7791C78.6375 25.6108 78.8118 25.5061 79.0516 25.5081Z" fill="#B19472"/>
<path fill-rule="evenodd" clip-rule="evenodd" d="M29.8382 36.7978C29.4861 36.7884 29.2654 36.4769 29.3787 36.1687C29.4157 36.0679 29.4787 35.9731 29.5451 35.8874C30.2353 34.9973 30.9282 34.1094 31.6218 33.222C31.6769 33.1515 31.7368 33.083 31.8036 33.0239C31.9942 32.855 32.246 32.8478 32.4319 32.9993C32.6243 33.156 32.6625 33.4237 32.5221 33.646C32.4956 33.6879 32.4631 33.7264 32.4304 33.7639C31.6642 34.6451 30.9487 35.5659 30.2782 36.5218C30.1638 36.6848 30.0302 36.8091 29.8382 36.7978Z" fill="#B19472"/>
<path fill-rule="evenodd" clip-rule="evenodd" d="M96.1767 48.1257C96.1824 48.3979 96.0413 48.5869 95.8139 48.6456C95.5962 48.7019 95.3682 48.5951 95.27 48.3783C95.2251 48.2791 95.2025 48.1697 95.1702 48.0648C94.8645 47.0726 94.5581 46.0806 94.2542 45.0879C94.2223 44.9839 94.1888 44.8759 94.1855 44.7688C94.1787 44.5534 94.3105 44.388 94.5161 44.3215C94.7112 44.2585 94.9262 44.3273 95.0433 44.5027C95.0924 44.5762 95.1282 44.6618 95.1546 44.7468C95.4848 45.8151 95.8125 46.8841 96.1396 47.9534C96.1598 48.0197 96.169 48.0894 96.1767 48.1257Z" fill="#B19472"/>
<path fill-rule="evenodd" clip-rule="evenodd" d="M22.9142 53.7357C22.9864 53.2185 23.0664 52.5942 23.1627 51.9723C23.236 51.4987 23.3292 51.028 23.4153 50.5563C23.4314 50.4681 23.4467 50.3779 23.4786 50.2947C23.5671 50.0635 23.8007 49.942 24.0348 49.9964C24.2549 50.0476 24.4118 50.2453 24.4022 50.4808C24.3973 50.5996 24.3652 50.7172 24.3468 50.8354C24.1911 51.832 24.0357 52.8287 23.8805 53.8254C23.8744 53.8649 23.8742 53.9053 23.8672 53.9445C23.8138 54.2427 23.5992 54.4129 23.3215 54.3782C23.0581 54.3453 22.9034 54.1436 22.9142 53.7357Z" fill="#B19472"/>
<path fill-rule="evenodd" clip-rule="evenodd" d="M97.1873 53.8509C97.1911 54.15 97.0222 54.356 96.7594 54.3814C96.4779 54.4087 96.2711 54.2406 96.2296 53.9325C96.1483 53.3283 96.0816 52.7222 95.9968 52.1185C95.9342 51.6733 95.8514 51.231 95.7801 50.7869C95.7628 50.6787 95.7433 50.5686 95.7461 50.4599C95.752 50.2328 95.9028 50.0628 96.1216 50.0162C96.3301 49.9717 96.5496 50.078 96.6445 50.2768C96.6742 50.339 96.6949 50.4085 96.7048 50.4768C96.8649 51.5743 97.0227 52.6722 97.1807 53.7701C97.1849 53.7998 97.1856 53.8299 97.1873 53.8509Z" fill="#B19472"/>
<path fill-rule="evenodd" clip-rule="evenodd" d="M24.4313 65.3758C24.4312 65.6612 24.2696 65.8571 24.0318 65.8908C23.7839 65.9259 23.5735 65.8057 23.5032 65.5545C23.4307 65.2954 23.3774 65.0297 23.3347 64.7639C23.1983 63.9161 23.0705 63.067 22.9404 62.2181C22.9313 62.1591 22.9241 62.0985 22.9275 62.0393C22.9417 61.7936 23.1241 61.5999 23.3588 61.5758C23.5904 61.5519 23.8146 61.7055 23.8675 61.9479C23.9099 62.1425 23.9196 62.3439 23.9527 62.5408C24.098 63.4073 24.2466 64.2733 24.3938 65.1395C24.4089 65.2282 24.4221 65.3171 24.4313 65.3758Z" fill="#B19472"/>
<path fill-rule="evenodd" clip-rule="evenodd" d="M97.2206 61.4484C97.0812 62.4052 96.9425 63.3622 96.8016 64.3188C96.7798 64.4667 96.7552 64.6148 96.7198 64.7599C96.6516 65.0388 96.4269 65.198 96.174 65.1565C95.905 65.1123 95.7361 64.8779 95.7798 64.5817C95.8481 64.1181 95.937 63.6575 96.0021 63.1935C96.0851 62.601 96.1532 62.0065 96.228 61.4129C96.2367 61.3438 96.2393 61.2726 96.2582 61.2063C96.3271 60.9657 96.5416 60.8225 96.7792 60.8521C97.0139 60.8813 97.1838 61.0736 97.1957 61.3245C97.1976 61.3644 97.196 61.4043 97.196 61.4442C97.2042 61.4455 97.2124 61.447 97.2206 61.4484Z" fill="#B19472"/>
<path fill-rule="evenodd" clip-rule="evenodd" d="M84.4239 29.4086C84.4937 29.4441 84.6273 29.4791 84.7156 29.5622C85.5235 30.322 86.3285 31.0849 87.1225 31.8591C87.3425 32.0735 87.3224 32.3686 87.1209 32.5541C86.9222 32.7371 86.6444 32.724 86.4221 32.5099C86.2206 32.3158 86.0339 32.1063 85.8309 31.9139C85.287 31.3983 84.7374 30.8886 84.1909 30.3756C84.1184 30.3075 84.0399 30.2418 83.9831 30.1616C83.8761 30.0104 83.8726 29.8426 83.9552 29.6783C84.0389 29.5121 84.1847 29.4354 84.4239 29.4086Z" fill="#B19472"/>
<path fill-rule="evenodd" clip-rule="evenodd" d="M94.796 70.6741C94.491 70.6834 94.2623 70.4428 94.2916 70.1518C94.3013 70.0542 94.3385 69.9587 94.3675 69.8636C94.6518 68.9283 94.937 67.9933 95.222 67.0583C95.2452 66.982 95.2612 66.9025 95.2928 66.8298C95.3966 66.5906 95.6451 66.4772 95.8854 66.5536C96.1088 66.6246 96.2549 66.8527 96.2047 67.0963C96.1504 67.3597 96.0792 67.6205 95.9999 67.8778C95.7559 68.6689 95.5037 69.4575 95.2563 70.2477C95.1814 70.487 95.0433 70.6517 94.796 70.6741Z" fill="#B19472"/>
<path fill-rule="evenodd" clip-rule="evenodd" d="M36.9566 29.1509C36.9547 29.3263 36.8581 29.4474 36.7323 29.555C36.3911 29.8465 36.0455 30.1333 35.7133 30.4348C35.2999 30.8101 34.8983 31.1983 34.4914 31.5809C34.4407 31.6287 34.3929 31.6809 34.3372 31.722C34.1275 31.8768 33.8506 31.8568 33.684 31.6788C33.5139 31.4969 33.5129 31.2332 33.6841 31.0248C33.7219 30.9787 33.7655 30.9368 33.8097 30.8966C34.5477 30.2263 35.2859 29.5561 36.0254 28.8874C36.0917 28.8275 36.1625 28.7695 36.2397 28.7254C36.3987 28.6345 36.5656 28.6344 36.7239 28.7273C36.8828 28.8206 36.9585 28.966 36.9566 29.1509Z" fill="#B19472"/>
<path fill-rule="evenodd" clip-rule="evenodd" d="M28.1565 38.351C28.5186 38.3531 28.7473 38.6667 28.648 38.9763C28.624 39.0513 28.5797 39.12 28.5426 39.1906C28.0877 40.0556 27.6325 40.9204 27.1773 41.7853C27.1448 41.847 27.1178 41.9126 27.0785 41.9697C26.9421 42.1683 26.7137 42.2387 26.5006 42.153C26.2863 42.0668 26.1704 41.8587 26.2136 41.62C26.2276 41.5429 26.2572 41.4658 26.2938 41.396C26.7655 40.4948 27.2399 39.5951 27.7134 38.6948C27.8168 38.4984 27.9563 38.3537 28.1565 38.351Z" fill="#B19472"/>
<path fill-rule="evenodd" clip-rule="evenodd" d="M23.6913 58.2156C23.6913 58.674 23.6912 59.1325 23.6914 59.5909C23.6914 59.6607 23.6978 59.7307 23.693 59.8001C23.6745 60.0686 23.4913 60.2522 23.237 60.2613C22.9786 60.2707 22.7736 60.1098 22.7446 59.8391C22.715 59.5622 22.7071 59.2819 22.7063 59.0031C22.7039 58.2255 22.7101 57.4481 22.7131 56.6705C22.7132 56.6406 22.714 56.6106 22.7164 56.5809C22.7425 56.2709 22.9303 56.0811 23.2046 56.0871C23.4765 56.0931 23.6731 56.2933 23.6745 56.6008C23.6765 57.0593 23.6589 57.5178 23.6503 57.9764C23.6487 58.056 23.6501 58.1359 23.6501 58.2157C23.6638 58.2156 23.6776 58.2156 23.6913 58.2156Z" fill="#B19472"/>
<path fill-rule="evenodd" clip-rule="evenodd" d="M55.8017 20.4447C56.0836 20.4483 56.2867 20.6194 56.3174 20.8665C56.3474 21.1073 56.1897 21.3264 55.9246 21.3872C55.7599 21.4249 55.5892 21.4355 55.422 21.4633C54.6154 21.5977 53.8091 21.7337 53.0027 21.8695C52.9634 21.8761 52.925 21.8889 52.8855 21.8936C52.6057 21.9276 52.3749 21.7743 52.3209 21.5202C52.2673 21.2668 52.4152 21.0195 52.6883 20.956C53.0475 20.8725 53.4108 20.8049 53.7747 20.7445C54.3551 20.6481 54.9374 20.5624 55.5192 20.4741C55.6178 20.4591 55.7177 20.4532 55.8017 20.4447Z" fill="#B19472"/>
<path fill-rule="evenodd" clip-rule="evenodd" d="M92.6447 75.3357C92.3762 75.3426 92.1396 75.0408 92.2306 74.7243C92.2579 74.6295 92.3111 74.542 92.3544 74.4521C92.7313 73.6692 93.1085 72.8865 93.4863 72.104C93.5296 72.0142 93.5666 71.9192 93.624 71.8389C93.7597 71.6488 94.0053 71.5916 94.212 71.6903C94.4183 71.7887 94.5269 72.0158 94.4708 72.24C94.4564 72.2977 94.4331 72.3542 94.4072 72.4079C93.9916 73.2719 93.575 74.1354 93.1582 74.9989C93.0653 75.1913 92.9289 75.3254 92.6447 75.3357Z" fill="#B19472"/>
<path fill-rule="evenodd" clip-rule="evenodd" d="M94.1726 42.3489C94.1698 42.5891 94.0401 42.776 93.8653 42.8402C93.6738 42.9105 93.4474 42.8552 93.3235 42.6936C93.2636 42.6155 93.2232 42.5218 93.1786 42.4329C92.7839 41.648 92.3902 40.8627 91.9965 40.0774C91.9607 40.0061 91.9201 39.9362 91.8931 39.8615C91.8094 39.6297 91.9035 39.381 92.1109 39.2712C92.3197 39.1606 92.5782 39.2186 92.7267 39.4139C92.7686 39.4691 92.8017 39.532 92.833 39.5942C93.2454 40.4149 93.6581 41.2353 94.0666 42.0578C94.1191 42.1635 94.1482 42.2808 94.1726 42.3489Z" fill="#B19472"/>
<path fill-rule="evenodd" clip-rule="evenodd" d="M46.1935 23.7066C46.1874 23.8894 46.0648 24.0319 45.8666 24.1208C45.5847 24.2472 45.2997 24.3672 45.022 24.5021C44.4663 24.7723 43.9147 25.0507 43.3615 25.326C43.0259 25.4929 42.7462 25.4388 42.6116 25.1784C42.4772 24.9184 42.5883 24.6218 42.9074 24.4715C43.7547 24.0724 44.5959 23.6603 45.4401 23.2545C45.4937 23.2288 45.5504 23.2063 45.6081 23.193C45.9118 23.1226 46.1968 23.3529 46.1935 23.7066Z" fill="#B19472"/>
<path fill-rule="evenodd" clip-rule="evenodd" d="M48.1398 23.205C47.8926 23.2004 47.7073 23.0618 47.6479 22.8677C47.5879 22.6719 47.6578 22.4529 47.8295 22.338C47.903 22.2889 47.9882 22.2523 48.0731 22.2259C48.9121 21.9651 49.7517 21.7067 50.5921 21.4504C50.6774 21.4244 50.7679 21.4059 50.8566 21.4032C51.0881 21.3964 51.2841 21.5552 51.3352 21.7786C51.3818 21.9824 51.2759 22.204 51.0767 22.3027C51.0059 22.3378 50.9268 22.3571 50.8506 22.3805C50.0394 22.6297 49.2281 22.8785 48.4166 23.1266C48.312 23.1587 48.2062 23.1863 48.1398 23.205Z" fill="#B19472"/>
<path fill-rule="evenodd" clip-rule="evenodd" d="M41.2079 26.2309C41.2061 26.426 41.0744 26.5618 40.8933 26.6721C40.3738 26.9886 39.856 27.3081 39.3402 27.6306C39.1204 27.7681 38.9076 27.9168 38.6906 28.0587C38.624 28.1024 38.5577 28.1495 38.485 28.1802C38.2677 28.2718 38.0256 28.2022 37.8985 28.0192C37.7625 27.8232 37.7901 27.565 37.9694 27.3926C38.0121 27.3515 38.0622 27.3169 38.1126 27.2851C38.8709 26.805 39.629 26.3245 40.39 25.8486C40.4724 25.797 40.5692 25.7544 40.6643 25.7395C40.9532 25.6942 41.2012 25.911 41.2079 26.2309Z" fill="#B19472"/>
<path fill-rule="evenodd" clip-rule="evenodd" d="M96.3897 57.6064C96.3897 57.2066 96.3891 56.8069 96.3902 56.4072C96.3905 56.3176 96.3865 56.226 96.4025 56.1386C96.4428 55.9185 96.6229 55.7648 96.8391 55.7532C97.0511 55.7419 97.2564 55.88 97.3163 56.0895C97.3433 56.1841 97.3533 56.2865 97.3538 56.3854C97.3579 57.2249 97.3586 58.0644 97.3584 58.9039C97.3584 58.9734 97.352 59.0445 97.3362 59.1119C97.2778 59.3605 97.0762 59.5125 96.8361 59.4951C96.5932 59.4774 96.4171 59.3031 96.3986 59.0454C96.3886 58.9064 96.4014 58.7658 96.4017 58.6259C96.4025 58.2861 96.402 57.9463 96.402 57.6065C96.3979 57.6064 96.3938 57.6064 96.3897 57.6064Z" fill="#B19472"/>
<path fill-rule="evenodd" clip-rule="evenodd" d="M59.5045 21.1876C59.1352 21.1876 58.766 21.1875 58.3967 21.1876C58.2969 21.1876 58.1961 21.1971 58.0974 21.1866C57.8651 21.1619 57.6929 20.9809 57.673 20.7529C57.6545 20.5408 57.7844 20.3376 57.9956 20.2661C58.0696 20.2411 58.1518 20.2324 58.2305 20.2305C59.0491 20.2112 59.8677 20.1934 60.6864 20.1792C60.7848 20.1775 60.8878 20.1857 60.9815 20.2134C61.2123 20.2819 61.3382 20.4818 61.3153 20.7177C61.2929 20.9498 61.1263 21.1153 60.8826 21.1369C60.7735 21.1465 60.663 21.1406 60.5532 21.1407C60.2036 21.141 59.8541 21.1408 59.5045 21.1408C59.5045 21.1564 59.5045 21.172 59.5045 21.1876Z" fill="#B19472"/>
<path fill-rule="evenodd" clip-rule="evenodd" d="M24.5483 67.3267C24.7662 67.3243 24.9332 67.4418 25.0147 67.6762C25.09 67.8924 25.1449 68.1158 25.2169 68.3333C25.3798 68.825 25.5491 69.3148 25.7125 69.8064C25.7469 69.9097 25.7831 70.0163 25.7911 70.1234C25.8077 70.3471 25.6703 70.5298 25.4564 70.5971C25.2605 70.6586 25.05 70.5884 24.9299 70.4139C24.8909 70.3572 24.8605 70.292 24.8389 70.2266C24.5979 69.4983 24.3589 68.7693 24.1213 68.0399C24.0998 67.974 24.0827 67.9044 24.0783 67.8356C24.0603 67.5574 24.2733 67.3296 24.5483 67.3267Z" fill="#B19472"/>
<path fill-rule="evenodd" clip-rule="evenodd" d="M63.2912 20.2967C64.0626 20.3968 64.8349 20.4907 65.605 20.6001C65.9074 20.6431 66.0791 20.8731 66.0472 21.1408C66.0153 21.4072 65.7934 21.5822 65.484 21.5483C64.9289 21.4875 64.3761 21.4063 63.822 21.3361C63.5846 21.3059 63.3436 21.2966 63.1094 21.251C62.8558 21.2016 62.7207 20.9963 62.7428 20.746C62.7644 20.5006 62.9398 20.335 63.1989 20.3161C63.2287 20.314 63.2587 20.3158 63.2887 20.3158C63.2894 20.3095 63.2903 20.3031 63.2912 20.2967Z" fill="#B19472"/>
<path fill-rule="evenodd" clip-rule="evenodd" d="M68.7139 21.2469C68.7492 21.254 68.8189 21.2628 68.8853 21.2824C69.5928 21.4911 70.3006 21.6995 71.0064 21.9139C71.0993 21.9422 71.1927 21.9906 71.2677 22.0519C71.4204 22.1765 71.4636 22.3845 71.3942 22.5695C71.3249 22.7543 71.1592 22.8724 70.9565 22.8725C70.8878 22.8726 70.8166 22.8622 70.7507 22.8427C70.0239 22.6285 69.2972 22.4137 68.5721 22.194C68.3287 22.1202 68.2084 21.9653 68.1995 21.7447C68.1882 21.464 68.3976 21.2469 68.7139 21.2469Z" fill="#B19472"/>
<path fill-rule="evenodd" clip-rule="evenodd" d="M27.8944 74.8347C27.875 75.0794 27.7861 75.2254 27.6056 75.3082C27.4235 75.3916 27.2208 75.3605 27.0815 75.2139C27.0143 75.1431 26.9617 75.0543 26.9177 74.966C26.6414 74.4126 26.3689 73.8572 26.0967 73.3018C26.0617 73.2302 26.0281 73.1567 26.006 73.0804C25.9409 72.855 26.0391 72.6252 26.2387 72.5208C26.4471 72.4118 26.7112 72.4736 26.8521 72.6697C26.8924 72.7257 26.9201 72.7914 26.951 72.8539C27.2292 73.4176 27.5084 73.9807 27.7833 74.546C27.8347 74.6516 27.8684 74.7658 27.8944 74.8347Z" fill="#B19472"/>
<path fill-rule="evenodd" clip-rule="evenodd" d="M54.9624 92.8354C54.5613 92.819 54.1789 92.8032 53.7807 92.7869C53.7807 92.6474 53.7773 92.5491 53.7812 92.4511C53.8098 91.7437 53.8399 91.0363 53.8695 90.3289C53.872 90.2691 53.8716 90.2091 53.8779 90.1497C53.9104 89.8475 54.0412 89.7206 54.3396 89.7139C54.4686 89.7111 54.6002 89.715 54.7267 89.7377C54.9703 89.7813 55.0694 89.8963 55.0779 90.147C55.0847 90.346 55.0744 90.5458 55.0667 90.7451C55.0439 91.333 55.0193 91.9209 54.9936 92.5087C54.9894 92.606 54.9754 92.7028 54.9624 92.8354Z" fill="#B19472"/>
<path fill-rule="evenodd" clip-rule="evenodd" d="M68.6581 95.5056C68.5043 93.4933 68.3547 91.5357 68.2021 89.5385C68.5036 89.4997 68.7856 89.4482 69.0721 89.4782C69.2932 89.5015 69.4004 89.664 69.4249 89.8675C69.4677 90.224 69.4971 90.5821 69.5251 90.9401C69.6239 92.2036 69.7199 93.4674 69.8162 94.7312C69.8245 94.8406 69.8335 94.9505 69.8325 95.06C69.8303 95.2894 69.7562 95.3947 69.5262 95.4286C69.2526 95.4689 68.9745 95.479 68.6581 95.5056Z" fill="#B19472"/>
<path fill-rule="evenodd" clip-rule="evenodd" d="M39.3867 94.3325C39.2448 94.312 39.0556 94.2926 38.8697 94.2562C38.5584 94.1952 38.446 94.0426 38.4878 93.7236C38.5579 93.1892 38.6384 92.6561 38.7157 92.1226C38.8688 91.0655 39.0254 90.0089 39.1756 88.9515C39.2624 88.3405 39.3712 88.2555 39.9775 88.3539C40.076 88.3699 40.1762 88.3788 40.273 88.4017C40.5375 88.4642 40.651 88.601 40.6242 88.8735C40.5882 89.2408 40.5297 89.606 40.477 89.9715C40.3002 91.1966 40.1219 92.4215 39.9437 93.6464C39.9279 93.7551 39.9133 93.8642 39.8904 93.9715C39.8308 94.2502 39.7106 94.3434 39.3867 94.3325Z" fill="#B19472"/>
<path fill-rule="evenodd" clip-rule="evenodd" d="M62.4352 95.7831C62.3804 93.7932 62.326 91.82 62.2707 89.8124C62.5656 89.8048 62.8229 89.7837 63.0785 89.796C63.2985 89.8066 63.4238 89.9308 63.4668 90.1485C63.4917 90.2751 63.4962 90.4067 63.4999 90.5363C63.5459 92.1154 63.5905 93.6945 63.6342 95.2736C63.6452 95.6717 63.5572 95.7661 63.1511 95.7816C62.9327 95.7898 62.7138 95.7831 62.4352 95.7831Z" fill="#B19472"/>
<path fill-rule="evenodd" clip-rule="evenodd" d="M47.5157 95.2755C47.684 93.2791 47.8497 91.3136 48.0183 89.3134C48.333 89.3207 48.6313 89.3114 48.9139 89.4053C49.1523 89.4846 49.1913 89.7044 49.1804 89.9236C49.1664 90.2028 49.1369 90.4812 49.1133 90.7599C48.9987 92.1136 48.8839 93.4672 48.7689 94.8209C48.763 94.8905 48.7614 94.9611 48.7482 95.0294C48.7047 95.2535 48.6102 95.3465 48.3794 95.3411C48.1028 95.3348 47.8269 95.3005 47.5157 95.2755Z" fill="#B19472"/>
<path fill-rule="evenodd" clip-rule="evenodd" d="M44.9864 89.4376C44.92 90.0176 44.8531 90.6029 44.7861 91.1882C44.6736 92.1704 44.5613 93.1525 44.4484 94.1346C44.4335 94.2635 44.4196 94.3929 44.3976 94.5207C44.3441 94.831 44.2127 94.9376 43.9075 94.9138C43.7384 94.9006 43.5692 94.8819 43.4018 94.8547C43.071 94.8012 42.9545 94.6542 42.9897 94.3164C43.0578 93.6609 43.1335 93.0061 43.2087 92.3514C43.3204 91.3792 43.4342 90.4073 43.5478 89.4354C43.557 89.3563 43.5643 89.2757 43.586 89.1996C43.6483 88.9816 43.7747 88.8792 44.0022 88.8898C44.2109 88.8995 44.4209 88.9238 44.6258 88.9646C44.8929 89.018 44.9925 89.1606 44.9864 89.4376Z" fill="#B19472"/>
<path fill-rule="evenodd" clip-rule="evenodd" d="M72.3952 89.1548C72.6821 89.1295 72.9275 89.0991 73.1739 89.0889C73.3655 89.0809 73.4938 89.1882 73.5557 89.3678C73.5816 89.4427 73.602 89.5214 73.6109 89.6C73.6717 90.1362 73.7292 90.6726 73.7868 91.2091C73.7931 91.2687 73.7958 91.3289 73.7962 91.3887C73.7982 91.7405 73.6756 91.8845 73.332 91.9263C73.1354 91.9502 72.9377 91.9662 72.6977 91.9899C72.5966 91.0426 72.4978 90.1166 72.3952 89.1548Z" fill="#B19472"/>
</svg>
